<!-- Generated by IcoMoon.io -->
<svg version="1.1" xmlns="http://www.w3.org/2000/svg" width="25" height="32" viewBox="0 0 25 32">
<title>apple</title>
<path d="M24.864 21.696q-0.672 2.24-2.176 4.448-2.304 3.52-4.608 3.52-0.864 0-2.496-0.576-1.536-0.576-2.688-0.576-1.088 0-2.528 0.608t-2.368 0.608q-2.72 0-5.376-4.64-2.624-4.672-2.624-8.992 0-4.064 2.016-6.656t5.088-2.592q1.28 0 3.136 0.544t2.464 0.544q0.8 0 2.56-0.608 1.824-0.608 3.104-0.608 2.112 0 3.808 1.152 0.928 0.64 1.856 1.792-1.408 1.184-2.048 2.112-1.152 1.664-1.152 3.68 0 2.208 1.216 4t2.816 2.24zM18.176 0.736q0 1.088-0.544 2.432-0.512 1.344-1.664 2.464-0.96 0.96-1.92 1.28-0.64 0.224-1.856 0.32 0.064-2.656 1.408-4.576 1.312-1.92 4.448-2.656 0.032 0.064 0.064 0.192t0.032 0.192 0 0.192 0.032 0.16z"></path>
</svg>
