<!-- Generated by IcoMoon.io -->
<svg version="1.1" xmlns="http://www.w3.org/2000/svg" width="32" height="32" viewBox="0 0 32 32">
<title>stats-bars2</title>
<path d="M9 12h-6c-0.55 0-1 0.45-1 1v18c0 0.55 0.45 1 1 1h6c0.55 0 1-0.45 1-1v-18c0-0.55-0.45-1-1-1zM9 30h-6v-8h6v8zM19 8h-6c-0.55 0-1 0.45-1 1v22c0 0.55 0.45 1 1 1h6c0.55 0 1-0.45 1-1v-22c0-0.55-0.45-1-1-1zM19 30h-6v-10h6v10zM29 4h-6c-0.55 0-1 0.45-1 1v26c0 0.55 0.45 1 1 1h6c0.55 0 1-0.45 1-1v-26c0-0.55-0.45-1-1-1zM29 30h-6v-12h6v12z"></path>
</svg>
