<!-- Generated by IcoMoon.io -->
<svg version="1.1" xmlns="http://www.w3.org/2000/svg" width="32" height="32" viewBox="0 0 32 32">
<title>bat-charge</title>
<path d="M4.992 11.008h18.336v9.984h-18.336v-9.984zM14.72 19.168l5.28-3.904-4.32 0.736-1.952-3.168-5.408 3.872 4.416-0.704zM28.32 11.008q1.408 0 2.368 0.96t0.992 2.336v3.328q0 1.408-0.992 2.4t-2.368 0.96q0 2.080-1.472 3.552t-3.52 1.44h-18.336q-2.080 0-3.52-1.44t-1.472-3.552v-9.984q0-2.080 1.472-3.552t3.52-1.472h18.336q2.080 0 3.52 1.472t1.472 3.552zM24.992 20.992v-9.984q0-0.704-0.48-1.184t-1.184-0.512h-18.336q-0.672 0-1.184 0.512t-0.48 1.184v9.984q0 0.672 0.48 1.152t1.184 0.48h18.336q0.672 0 1.184-0.48t0.48-1.152z"></path>
</svg>
