<!-- Generated by IcoMoon.io -->
<svg version="1.1" xmlns="http://www.w3.org/2000/svg" width="27" height="32" viewBox="0 0 27 32">
<title>list-small</title>
<path d="M27.424 24v2.272q0 0.48-0.32 0.8t-0.832 0.352h-25.12q-0.48 0-0.8-0.352t-0.352-0.8v-2.272q0-0.48 0.352-0.8t0.8-0.352h25.12q0.48 0 0.832 0.352t0.32 0.8zM27.424 14.848v2.304q0 0.448-0.32 0.8t-0.832 0.32h-25.12q-0.48 0-0.8-0.32t-0.352-0.8v-2.304q0-0.448 0.352-0.8t0.8-0.32h25.12q0.48 0 0.832 0.32t0.32 0.8zM27.424 5.728v2.272q0 0.448-0.32 0.8t-0.832 0.352h-25.12q-0.48 0-0.8-0.352t-0.352-0.8v-2.272q0-0.48 0.352-0.832t0.8-0.32h25.12q0.48 0 0.832 0.32t0.32 0.832z"></path>
</svg>
