<!-- Generated by IcoMoon.io -->
<svg version="1.1" xmlns="http://www.w3.org/2000/svg" width="37" height="32" viewBox="0 0 37 32">
<title>wifi</title>
<path d="M18.272 27.2q-0.352 0-1.632-1.312t-1.312-1.664q0-0.576 1.12-0.96t1.824-0.416 1.856 0.416 1.12 0.96q0 0.352-1.312 1.664t-1.664 1.312zM23.104 22.368q-0.032 0-0.704-0.448t-1.824-0.896-2.304-0.448-2.272 0.448-1.824 0.896-0.704 0.448q-0.32 0-1.664-1.344t-1.344-1.664q0-0.224 0.16-0.416 1.408-1.376 3.488-2.144t4.16-0.8 4.192 0.8 3.488 2.144q0.16 0.192 0.16 0.416 0 0.32-1.344 1.664t-1.664 1.344zM27.968 17.504q-0.192 0-0.384-0.16-2.432-1.856-4.512-2.752t-4.8-0.864q-1.504 0-3.040 0.384t-2.656 0.928-2.016 1.12-1.408 0.96-0.576 0.384q-0.288 0-1.632-1.344t-1.344-1.664q0-0.224 0.192-0.384 2.368-2.368 5.696-3.68t6.784-1.28 6.816 1.28 5.696 3.68q0.192 0.16 0.192 0.384 0 0.32-1.344 1.664t-1.664 1.344zM32.832 12.672q-0.192 0-0.416-0.16-3.168-2.816-6.624-4.224t-7.52-1.44-7.488 1.44-6.624 4.224q-0.224 0.16-0.416 0.16-0.288 0-1.632-1.344t-1.376-1.664q0-0.224 0.192-0.416 3.328-3.328 7.936-5.152t9.408-1.824 9.44 1.824 7.936 5.152q0.16 0.192 0.16 0.416 0 0.32-1.344 1.664t-1.632 1.344z"></path>
</svg>
